<?xml version="1.0" encoding="utf-8"?>
<!-- Generator: Adobe Illustrator 24.0.0, SVG Export Plug-In . SVG Version: 6.00 Build 0)  -->
<svg version="1.1" id="b5162e9e-2823-4c19-907c-4c0a60840bc1" opacity="0.25"
	 xmlns="http://www.w3.org/2000/svg" xmlns:xlink="http://www.w3.org/1999/xlink" x="0px" y="0px" viewBox="0 0 446 358.7"
	 style="enable-background:new 0 0 446 358.7;" xml:space="preserve">
<style type="text/css">
	.st0{fill:#E6E6E6;}
	.st1{fill:#FFFFFF;}
	.st2{fill:#FEB633;}
</style>
<path class="st0" d="M66.6,218.3l-24.8,27.8c20.6,8.7,41.4-3.4,50-9.5c59.9,32.9,135.1,11,168-48.8s11-135.1-48.8-168
	s-135.1-11-168,48.8C15.8,118,25.5,179.6,66.6,218.3L66.6,218.3z"/>
<path class="st1" d="M84.6,107.9c25.6-0.3,51.1-0.7,76.7-1.1c8.5-0.1,17-0.2,25.6-0.3c7.3-0.1,7.4-11.5,0-11.4
	c-25.6,0.3-51.1,0.7-76.7,1.1c-8.5,0.1-17,0.2-25.6,0.3C77.3,96.5,77.3,107.9,84.6,107.9L84.6,107.9z"/>
<path class="st1" d="M84.6,134.5l103.3-1.1l29.4-0.3c7.3-0.1,7.4-11.5,0-11.4L114,122.8l-29.4,0.3C77.3,123.2,77.3,134.6,84.6,134.5
	L84.6,134.5z"/>
<path class="st1" d="M84.6,161.1l103.3-1.1l29.4-0.3c7.3-0.1,7.4-11.5,0-11.4L114,149.4l-29.4,0.3C77.3,149.8,77.3,161.2,84.6,161.1
	L84.6,161.1z"/>
<path class="st2" d="M431.3,223c0-68.2-55.3-123.5-123.5-123.4s-123.5,55.3-123.4,123.5s55.3,123.5,123.5,123.4
	c20.7,0,41.1-5.2,59.3-15.2c8.5,6.1,29.4,18.2,50,9.5L392.4,313C417.3,289.7,431.4,257.1,431.3,223z"/>
<path class="st1" d="M244.6,202.6c25.6-0.3,51.1-0.7,76.7-1.1c8.5-0.1,17-0.2,25.6-0.3c7.3-0.1,7.4-11.5,0-11.4
	c-25.6,0.3-51.1,0.7-76.7,1.1c-8.5,0.1-17,0.2-25.6,0.3C237.3,191.3,237.3,202.7,244.6,202.6z"/>
<path class="st1" d="M244.6,229.2l103.3-1.1l29.4-0.3c7.3-0.1,7.4-11.5,0-11.4L274,217.5l-29.4,0.3
	C237.3,217.9,237.3,229.3,244.6,229.2L244.6,229.2z"/>
<path class="st1" d="M244.6,255.9l103.3-1.1l29.4-0.3c7.3-0.1,7.4-11.5,0-11.4L274,244.2l-29.4,0.3
	C237.3,244.5,237.3,255.9,244.6,255.9z"/>
</svg>
