<?xml version="1.0" encoding="utf-8"?>
<!-- Generator: Adobe Illustrator 24.0.0, SVG Export Plug-In . SVG Version: 6.00 Build 0)  -->
<svg version="1.1" id="bb441d3c-cf2a-489d-ae6b-061a3c0e4b94"
	 xmlns="http://www.w3.org/2000/svg" xmlns:xlink="http://www.w3.org/1999/xlink" x="0px" y="0px" viewBox="0 0 360 373"
	 style="enable-background:new 0 0 360 373;" xml:space="preserve">
<style type="text/css">
	.st0{opacity:0.25;fill:#FEB633;}
	.st1{opacity:0.25;fill:#E6E6E6;}
</style>
<path class="st0" d="M16.1,167.3c-6.5,2-13.5-1.6-15.6-8.1c-0.7-2.1-0.7-4.3-0.3-6.5C7.5,122.6,35,49.1,135.1,18.2
	C178.4,4.8,220,4.6,258.6,17.5c31.7,10.6,52.8,27.2,62.9,35.2c5.3,4.2,6.2,12,2,17.3c0,0-0.1,0.1-0.1,0.1c-4.3,5.3-12.1,6.2-17.6,2
	C287.6,57.7,232.2,14,142.3,41.8C54.6,68.8,30.8,132.2,24.6,158.1C23.7,162.5,20.4,166,16.1,167.3L16.1,167.3z"/>
<path class="st0" d="M288.9,337.5c-1,0.3-2,0.5-3.1,0.6c-78.2,4.2-127.9-60.7-130-63.4l-0.4-0.6c-1.2-1.9-31.3-47.7-18.1-84.1
	c6.1-16.6,19.5-28.3,40.1-34.6c19.1-5.9,34.8-4.2,48.1,5.4c10.9,7.8,17.9,19.3,24.7,30.5c14.1,23.2,22.8,35,49.6,28.2
	c11.8-3,17.3-12.2,19.8-19.4c6.8-19.5,0.8-46.1-15.1-66.3c-20.5-26.1-77.9-69.5-148.6-47.7c-30.2,9.3-55,27.7-71.5,53.1
	c-13.7,21-21.7,47.1-21.9,71.5c-0.3,45.3,36.9,105,37.2,105.5c3.6,5.8,1.8,13.3-3.9,16.9c0,0,0,0,0,0c0,0-0.1,0-0.1,0.1
	c-5.8,3.6-13.5,1.9-17.2-3.9c-1.7-2.7-41.4-66.3-41-118.7c0.4-56.8,35-124.6,111.2-148.1c35.2-10.9,72.2-9.1,107.1,5.2
	c27,11.1,52,29.6,68.5,50.6c21.1,26.9,28.5,62,18.9,89.5c-6.4,18.3-19.7,30.9-37.3,35.4c-45.9,11.7-63.9-17.7-77-39.2
	c-13.5-22-20.9-32.3-44.2-25.1c-12.8,3.9-20.7,10.3-24,19.4c-4.5,12.4-0.2,28.4,4.1,39.5c0,0.1,0.1,0.2,0.1,0.3
	c5.6,14.2,14.4,26.9,25.6,37.3c18,16.6,51.5,40.3,94.1,38.1c6.8-0.4,12.6,4.7,13,11.5c0,0,0,0.1,0,0.1
	C297.9,330.7,294.3,335.8,288.9,337.5L288.9,337.5z"/>
<path class="st0" d="M194.1,360.8c-3.3,1-6.9,0.6-9.9-1c-38.6-21.8-65.6-51.2-85.1-92.4l-0.1-0.3c-12.3-27.5-19.7-69.4-3.4-104.9
	c12-26.2,34.6-44.6,67.1-54.6c38.4-11.8,74.1-3.1,103.4,25.1c13.3,13,24.2,28.4,32,45.3c2.6,6.4-0.4,13.7-6.8,16.3
	c-6.3,2.6-13.4-0.3-16.2-6.5c-6.6-14.1-15.8-26.9-27-37.8c-22.6-21.5-48.9-27.8-78.1-18.8c-25.3,7.8-42.7,21.6-51.7,41.1
	c-12.9,28-6.2,62.9,3.4,84.5c17.2,36.4,41,62.3,75,81.5c5.9,3.3,8,10.8,4.7,16.7c0,0,0,0,0,0c0,0.1-0.1,0.1-0.1,0.2
	C199.6,357.9,197,359.9,194.1,360.8z"/>
<circle class="st1" cx="198.1" cy="221.8" r="15.9"/>
</svg>
